<svg width="58" height="56" viewBox="0 0 58 56" fill="none" xmlns="http://www.w3.org/2000/svg">
<path d="M49.327 19.146H56.029V8.146H49.327" stroke="#394553" stroke-width="2.5" stroke-miterlimit="10" stroke-linejoin="round"/>
<path d="M11.229 14.543H2" stroke="#394553" stroke-width="2.5" stroke-miterlimit="10" stroke-linecap="round"/>
<path d="M38.86 41.54L35.786 35.98C35.786 35.98 35.35 34.81 33.868 34.846L30.226 34.945C30.226 34.945 28.555 31.219 27.865 28.697C26.971 26.239 26.184 22.232 26.184 22.232L29.215 20.21C30.446 19.383 30.126 18.177 30.126 18.177L29.425 11.863C29.271 10.792 28.524 10.593 28.524 10.593C27.647 10.188 25.807 10.583 23.879 11.261C21.952 11.938 20.205 13.423 20.205 13.423C17.804 20.272 21.333 29.897 21.568 30.698C21.928 31.7 24.518 41.384 30.43 45.589C30.43 45.589 32.783 45.78 34.679 45.235C36.576 44.688 38.373 43.935 38.855 43.097C38.856 43.097 39.353 42.504 38.86 41.54Z" stroke="#394553" stroke-width="2.5" stroke-miterlimit="10" stroke-linecap="square" stroke-linejoin="round"/>
<path d="M11.229 27.583H2" stroke="#394553" stroke-width="2.5" stroke-miterlimit="10" stroke-linecap="round"/>
<path d="M6.11499 27.54V19.083" stroke="#394553" stroke-width="2.5" stroke-miterlimit="10" stroke-linejoin="round"/>
<path d="M6.11499 14.562V7C6.11499 4.25 8.36499 2 11.115 2H44.099C46.849 2 49.099 4.25 49.099 7V49.071C49.099 51.821 46.849 54.071 44.099 54.071H11.115C8.36499 54.071 6.11499 51.821 6.11499 49.071V45.633" stroke="#394553" stroke-width="2.5" stroke-miterlimit="10" stroke-linejoin="round"/>
<path d="M49.299 33.346H56V23.988" stroke="#394553" stroke-width="2.5" stroke-miterlimit="10" stroke-linejoin="round"/>
<path d="M49.299 47.512H56V38.154" stroke="#394553" stroke-width="2.5" stroke-miterlimit="10" stroke-linejoin="round"/>
<path d="M11.229 40.808H2" stroke="#394553" stroke-width="2.5" stroke-miterlimit="10" stroke-linecap="round"/>
<path d="M6.11499 40.764V32.308" stroke="#394553" stroke-width="2.5" stroke-miterlimit="10" stroke-linejoin="round"/>
</svg>
