<?xml version="1.0" encoding="utf-8"?>
<!-- Generator: Adobe Illustrator 15.0.0, SVG Export Plug-In . SVG Version: 6.00 Build 0)  -->
<!DOCTYPE svg PUBLIC "-//W3C//DTD SVG 1.1//EN" "http://www.w3.org/Graphics/SVG/1.1/DTD/svg11.dtd">
<svg version="1.1" id="Layer_1" xmlns="http://www.w3.org/2000/svg" xmlns:xlink="http://www.w3.org/1999/xlink" x="0px" y="0px"
	 width="85px" height="85px" viewBox="0 0 85 85" enable-background="new 0 0 85 85" xml:space="preserve">
<g>
	<g>
		<g>
			<g>
				<path fill="none" stroke="#394553" stroke-width="2.5" stroke-linejoin="round" stroke-miterlimit="10" d="M58.339,59.523
					l-13.021,4.846l3.771-13.586l16.125-18.279c0.89-1.007,2.756-0.829,4.148,0.393l4.479,3.954c1.392,1.227,1.803,3.058,0.91,4.067
					L58.339,59.523z"/>
				
					<line fill="none" stroke="#394553" stroke-width="2.5" stroke-linejoin="round" stroke-miterlimit="10" x1="58.152" y1="57.928" x2="50.258" y2="50.959"/>
				
					<line fill="none" stroke="#394553" stroke-width="2.5" stroke-linejoin="round" stroke-miterlimit="10" x1="49.283" y1="62.686" x2="46.717" y2="60.367"/>
			</g>
			
				<line fill="none" stroke="#394553" stroke-width="2.5" stroke-linejoin="round" stroke-miterlimit="10" x1="54.469" y1="54.533" x2="63.597" y2="44.186"/>
		</g>
		
			<line fill="none" stroke="#394553" stroke-width="2.5" stroke-linejoin="round" stroke-miterlimit="10" x1="61.962" y1="36.614" x2="71.078" y2="44.656"/>
	</g>
	<path fill="none" stroke="#394553" stroke-width="2.5" stroke-linecap="round" stroke-linejoin="round" stroke-miterlimit="10" d="
		M41.115,57.486H12.552c-1.526,0-2.775-1.248-2.775-2.775V23.407c0-1.526,1.249-2.775,2.775-2.775h45.196
		c1.525,0,2.775,1.249,2.775,2.775v6.105"/>
	
		<line fill="none" stroke="#394553" stroke-width="2.5" stroke-linecap="round" stroke-linejoin="round" stroke-miterlimit="10" x1="22.845" y1="42.39" x2="11.382" y2="56.109"/>
	
		<polyline fill="none" stroke="#394553" stroke-width="2.5" stroke-linecap="round" stroke-linejoin="round" stroke-miterlimit="10" points="
		10.766,21.627 35.226,40.509 59.481,21.472 	"/>
</g>
</svg>
