<?xml version="1.0" encoding="utf-8"?>
<!-- Generator: Adobe Illustrator 15.0.0, SVG Export Plug-In . SVG Version: 6.00 Build 0)  -->
<!DOCTYPE svg PUBLIC "-//W3C//DTD SVG 1.1//EN" "http://www.w3.org/Graphics/SVG/1.1/DTD/svg11.dtd">
<svg version="1.1" id="Layer_1" xmlns="http://www.w3.org/2000/svg" xmlns:xlink="http://www.w3.org/1999/xlink" x="0px" y="0px"
	 width="85px" height="85px" viewBox="0 0 85 85" enable-background="new 0 0 85 85" xml:space="preserve">
<g>
	<path fill="none" stroke="#394553" stroke-width="2.5" stroke-linejoin="round" stroke-miterlimit="10" d="M62.373,34.586h3.434
		c1.65,0,3,1.35,3,3v32.417c0,1.649-1.35,3-3,3H19.193c-1.65,0-3-1.351-3-3V37.586c0-1.65,1.35-3,3-3h18.653"/>
	<path fill="none" stroke="#394553" stroke-width="2.5" stroke-linecap="round" stroke-miterlimit="10" d="M25.006,52.725"/>
	<path fill="none" stroke="#394553" stroke-width="2.5" stroke-linecap="round" stroke-miterlimit="10" d="M25.006,42.636"/>
	<polyline fill="none" stroke="#394553" stroke-width="2.5" stroke-linejoin="round" stroke-miterlimit="10" points="40.312,72.959 
		40.312,52.446 45.225,48.667 	"/>
	
		<line fill="none" stroke="#394553" stroke-width="2.5" stroke-linecap="round" stroke-miterlimit="10" x1="40.224" y1="62.632" x2="28.057" y2="62.632"/>
	<line fill="none" stroke="#394553" stroke-width="2.5" stroke-miterlimit="10" x1="59.155" y1="55.729" x2="51.525" y2="55.72"/>
	<line fill="none" stroke="#394553" stroke-width="2.5" stroke-miterlimit="10" x1="35.964" y1="43.743" x2="16.266" y2="43.733"/>
	<line fill="none" stroke="#394553" stroke-width="2.5" stroke-miterlimit="10" x1="27.925" y1="73.006" x2="27.925" y2="34.625"/>
	<polyline fill="none" stroke="#394553" stroke-width="2.5" stroke-linejoin="round" stroke-miterlimit="10" points="59.198,72.794 
		59.198,46.808 68.766,46.808 	"/>
	<path fill="none" stroke="#394553" stroke-width="2.5" stroke-linejoin="round" stroke-miterlimit="10" d="M61.276,23.085
		c0,6.125-11.091,24.802-11.091,24.802s-11.09-18.677-11.09-24.802s4.965-11.09,11.09-11.09S61.276,16.96,61.276,23.085z"/>
	
		<circle fill="none" stroke="#394553" stroke-width="2.5" stroke-linejoin="round" stroke-miterlimit="10" cx="50.186" cy="23.085" r="4.736"/>
</g>
</svg>
