<?xml version="1.0" encoding="utf-8"?>
<!-- Generator: Adobe Illustrator 15.0.0, SVG Export Plug-In . SVG Version: 6.00 Build 0)  -->
<!DOCTYPE svg PUBLIC "-//W3C//DTD SVG 1.1//EN" "http://www.w3.org/Graphics/SVG/1.1/DTD/svg11.dtd">
<svg version="1.1" id="Layer_1" xmlns="http://www.w3.org/2000/svg" xmlns:xlink="http://www.w3.org/1999/xlink" x="0px" y="0px"
	 width="85px" height="85px" viewBox="0 0 85 85" enable-background="new 0 0 85 85" xml:space="preserve">
<g>
	<path fill="none" stroke="#394553" stroke-width="2.5" stroke-linejoin="round" stroke-miterlimit="10" d="M32.079,19.983h33.935
		c3.377,0,6.143,2.765,6.143,6.144v32.748c0,3.379-2.766,6.143-6.143,6.143H32.079"/>
	<g>
		<g>
			
				<line fill="none" stroke="#394553" stroke-width="2.5" stroke-linejoin="round" stroke-miterlimit="10" x1="43.299" y1="42.246" x2="37.26" y2="42.246"/>
			
				<line fill="none" stroke="#394553" stroke-width="2.5" stroke-linejoin="round" stroke-miterlimit="10" x1="43.299" y1="49.932" x2="37.26" y2="49.932"/>
			
				<line fill="none" stroke="#394553" stroke-width="2.5" stroke-linejoin="round" stroke-miterlimit="10" x1="43.299" y1="57.617" x2="37.26" y2="57.617"/>
		</g>
		<g>
			
				<line fill="none" stroke="#394553" stroke-width="2.5" stroke-linejoin="round" stroke-miterlimit="10" x1="64.066" y1="42.246" x2="58.029" y2="42.246"/>
			
				<line fill="none" stroke="#394553" stroke-width="2.5" stroke-linejoin="round" stroke-miterlimit="10" x1="64.066" y1="49.932" x2="58.029" y2="49.932"/>
			
				<line fill="none" stroke="#394553" stroke-width="2.5" stroke-linejoin="round" stroke-miterlimit="10" x1="64.066" y1="57.617" x2="58.029" y2="57.617"/>
		</g>
		<g>
			
				<line fill="none" stroke="#394553" stroke-width="2.5" stroke-linejoin="round" stroke-miterlimit="10" x1="53.682" y1="42.246" x2="47.645" y2="42.246"/>
			
				<line fill="none" stroke="#394553" stroke-width="2.5" stroke-linejoin="round" stroke-miterlimit="10" x1="53.682" y1="49.932" x2="47.645" y2="49.932"/>
			
				<line fill="none" stroke="#394553" stroke-width="2.5" stroke-linejoin="round" stroke-miterlimit="10" x1="53.682" y1="57.617" x2="47.645" y2="57.617"/>
		</g>
	</g>
	
		<rect x="38.633" y="27.384" fill="none" stroke="#394553" stroke-width="2.5" stroke-linecap="round" stroke-linejoin="round" stroke-miterlimit="10" width="24.061" height="7.243"/>
	<path fill="none" stroke="#394553" stroke-width="2.5" stroke-miterlimit="10" d="M21.011,19.407c-4.461,0-8.166,3.762-8.166,8.359
		v29.468c0,4.598,3.705,8.359,8.166,8.359s8.166-3.762,8.166-8.359V27.766C29.177,23.168,25.472,19.407,21.011,19.407z"/>
</g>
</svg>
